<svg width="30" height="30" viewBox="0 0 30 30" fill="none" xmlns="http://www.w3.org/2000/svg">
<path fill-rule="evenodd" clip-rule="evenodd" d="M6.24994 4.99998C4.17887 4.99998 2.49994 6.67892 2.49994 8.74998V21.25C2.49994 23.3211 4.17887 25 6.24994 25H23.7499C25.821 25 27.4999 23.3211 27.4999 21.25V8.74998C27.4999 6.67892 25.821 4.99998 23.7499 4.99998H6.24994ZM4.99994 9.5438V21.25C4.99994 21.9403 5.55958 22.5 6.24994 22.5H23.7499C24.4403 22.5 24.9999 21.9403 24.9999 21.25V9.09347L17.4345 15.7689C16.0471 16.993 13.9742 17.0223 12.5527 15.8378L4.99994 9.5438ZM23.0273 7.49998H6.45248L14.1532 13.9172C14.627 14.3121 15.318 14.3023 15.7804 13.8943L23.0273 7.49998Z" fill="#5A425C"/>
</svg>
