<svg width="30" height="30" viewBox="0 0 30 30" fill="none" xmlns="http://www.w3.org/2000/svg">
<path d="M9.11844 7.47655C9.08747 6.07073 8.08217 4.99998 6.44971 4.99998C4.81725 4.99998 3.75 6.07073 3.75 7.47655C3.75 8.85324 4.7857 9.95482 6.38776 9.95482H6.41826C8.08217 9.95482 9.11844 8.85324 9.11844 7.47655Z" fill="#5A425C"/>
<path d="M8.80418 11.9118H4.03221V26.2495H8.80418V11.9118Z" fill="#5A425C"/>
<path d="M20.5193 11.5751C23.6595 11.5751 26.0137 13.6248 26.0137 18.0287L26.0135 26.2496H21.2417V18.5789C21.2417 16.6522 20.5512 15.3374 18.8237 15.3374C17.5053 15.3374 16.7201 16.2237 16.3752 17.0798C16.249 17.3866 16.218 17.8141 16.218 18.2426V26.25H11.4455C11.4455 26.25 11.5084 13.2576 11.4455 11.9122H16.218V13.943C16.8514 12.9668 17.9857 11.5751 20.5193 11.5751Z" fill="#5A425C"/>
</svg>
