<svg width="19" height="24" viewBox="0 0 19 24" fill="none" xmlns="http://www.w3.org/2000/svg">
<path d="M9.42854 0C6.92794 0 4.52975 0.993361 2.76156 2.76156C0.993361 4.52975 0 6.92794 0 9.42854C0 15.7928 8.3089 22.9821 8.66247 23.2885C8.87595 23.4711 9.14762 23.5714 9.42854 23.5714C9.70946 23.5714 9.98113 23.4711 10.1946 23.2885C10.6071 22.9821 18.8571 15.7928 18.8571 9.42854C18.8571 6.92794 17.8637 4.52975 16.0955 2.76156C14.3273 0.993361 11.9291 0 9.42854 0ZM9.42854 20.8017C6.91819 18.4446 2.35714 13.365 2.35714 9.42854C2.35714 7.55309 3.10216 5.75445 4.4283 4.4283C5.75445 3.10216 7.55309 2.35714 9.42854 2.35714C11.304 2.35714 13.1026 3.10216 14.4288 4.4283C15.7549 5.75445 16.4999 7.55309 16.4999 9.42854C16.4999 13.365 11.9389 18.4564 9.42854 20.8017ZM9.42854 4.71427C8.49615 4.71427 7.58469 4.99076 6.80943 5.50877C6.03417 6.02678 5.42993 6.76305 5.07312 7.62447C4.71631 8.48589 4.62295 9.43377 4.80485 10.3482C4.98675 11.2627 5.43575 12.1027 6.09505 12.762C6.75435 13.4213 7.59435 13.8703 8.50883 14.0522C9.42331 14.2341 10.3712 14.1408 11.2326 13.784C12.094 13.4271 12.8303 12.8229 13.3483 12.0476C13.8663 11.2724 14.1428 10.3609 14.1428 9.42854C14.1428 8.17824 13.6461 6.97914 12.762 6.09505C11.8779 5.21095 10.6788 4.71427 9.42854 4.71427ZM9.42854 11.7857C8.96234 11.7857 8.50662 11.6474 8.11899 11.3884C7.73136 11.1294 7.42924 10.7613 7.25083 10.3306C7.07243 9.89987 7.02575 9.42593 7.1167 8.96869C7.20765 8.51145 7.43214 8.09145 7.76179 7.76179C8.09145 7.43214 8.51145 7.20765 8.96869 7.1167C9.42593 7.02575 9.89987 7.07243 10.3306 7.25083C10.7613 7.42924 11.1294 7.73136 11.3884 8.11899C11.6474 8.50662 11.7857 8.96234 11.7857 9.42854C11.7857 10.0537 11.5373 10.6532 11.0953 11.0953C10.6532 11.5373 10.0537 11.7857 9.42854 11.7857Z" fill="#5A425C"/>
</svg>
